<?xml version="1.0" standalone="no"?>
<!DOCTYPE svg PUBLIC "-//W3C//DTD SVG 20010904//EN"
 "http://www.w3.org/TR/2001/REC-SVG-20010904/DTD/svg10.dtd">
<svg version="1.0" xmlns="http://www.w3.org/2000/svg"
 width="25.000000pt" height="25.000000pt" viewBox="0 0 256.000000 256.000000"
 preserveAspectRatio="xMidYMid meet">

<g transform="translate(0.000000,256.000000) scale(0.108000,-0.1080000)"
fill="#1e3a8a" stroke="none">
<path d="M1400 2384 c-136 -36 -260 -134 -319 -252 -25 -49 -71 -228 -216
-830 -102 -422 -192 -785 -201 -807 -53 -134 -192 -236 -348 -253 -65 -8 -90
-28 -70 -60 23 -37 153 -19 264 36 75 37 170 133 209 209 24 49 72 233 217
835 104 434 196 795 210 823 61 130 185 215 338 233 65 8 90 28 70 60 -15 23
-82 26 -154 6z"/>
<path d="M1492 1748 c-9 -9 -12 -71 -12 -219 l0 -207 -127 -4 c-149 -4 -189
-18 -238 -87 -29 -42 -30 -46 -33 -183 -3 -94 0 -155 9 -186 16 -57 70 -113
125 -130 55 -16 316 -16 332 0 9 9 12 136 12 508 0 513 -1 520 -40 520 -9 0
-21 -5 -28 -12z m-12 -728 l0 -220 -121 0 -121 0 -39 39 -39 39 0 142 0 142
39 39 39 39 121 0 121 0 0 -220z"/>
<path d="M1692 1268 c-7 -7 -12 -19 -12 -27 0 -9 51 -66 112 -128 l113 -113
-113 -113 c-61 -62 -112 -119 -112 -128 0 -19 20 -39 39 -39 9 0 66 51 128
112 l113 113 113 -113 c62 -61 119 -112 128 -112 19 0 39 20 39 39 0 9 -51 66
-112 128 l-113 113 113 113 c61 62 112 119 112 128 0 19 -20 39 -39 39 -9 0
-66 -51 -128 -112 l-113 -113 -113 113 c-62 61 -119 112 -128 112 -8 0 -20 -5
-27 -12z"/>
</g>
</svg>
