<?xml version="1.0" encoding="utf-8"?>
<!DOCTYPE svg PUBLIC "-//W3C//DTD SVG 20010904//EN" "http://www.w3.org/TR/2001/REC-SVG-20010904/DTD/svg10.dtd">
<svg version="1.0" xmlns="http://www.w3.org/2000/svg" width="1200px" height="1200px" viewBox="0 0 1200 1200" preserveAspectRatio="xMidYMid meet">
 <g fill="#525252">
  <path fill="currentColor" d="M111 1196.5 c-26.1 -7.4 -45.7 -18.6 -64.9 -37 -22.4 -21.5 -37.2 -49.2 -43.3 -81 l-2.3 -12 0 -364 0 -364 2.3 -12 c8.8 -46.1 35.2 -82.7 76.2 -105.7 13.2 -7.4 33.9 -14.2 50 -16.4 8.7 -1.1 46 -1.4 218.1 -1.4 137.1 0 209.5 0.3 213 1 22.4 4.3 39 24.5 39.2 48 0.1 18.5 -10 35.7 -25.7 43.7 -12.4 6.3 7.7 5.8 -224.1 6.3 l-211 0.5 -7.7 3.3 c-11.3 4.9 -20.4 13.6 -26 25 l-4.3 8.5 -0.3 360.6 c-0.2 356.9 -0.2 360.7 1.8 367.1 3.9 12.9 13.4 24.1 25.4 30 13.4 6.5 -17.3 6 372.6 6 342.6 0 354.9 -0.1 361.7 -1.9 17 -4.4 29.4 -15.5 36 -32.1 1.7 -4.3 1.8 -16.1 2.3 -215 l0.5 -210.5 2.7 -7.2 c3.3 -8.9 7.1 -14.6 14 -20.8 18.2 -16.5 48.1 -16.4 65.9 0.2 6.8 6.4 10.5 11.9 13.7 20.6 l2.7 7.2 0.3 205 c0.2 132.8 -0.1 208.6 -0.7 215.2 -3.9 39.2 -19.3 71.3 -46.6 97.1 -18.9 17.9 -39.1 29.1 -65.3 36.2 l-11.2 3 -376.8 -0.1 -376.7 -0.1 -11.5 -3.3z"/>
  <path fill="currentColor" d="M442.3 773.9 c-9.4 -3.6 -15.3 -12.3 -15.3 -22.7 0 -3.6 9.1 -51.5 15.9 -84.2 2.1 -9.6 4.2 -20.5 8.5 -42.5 5.9 -30.2 7.9 -39.8 10.3 -50.5 l2.5 -11.5 200.2 -200.3 200.1 -200.2 88 88 88 88 -199 199 c-161.9 161.9 -199.8 199.3 -203.5 200.9 -2.5 1 -27.4 6.4 -55.5 12 -28 5.6 -55.3 11 -60.5 12.1 -22.2 4.7 -70.2 14 -72.3 13.9 -1.2 0 -4.5 -0.9 -7.4 -2z"/>
  <path fill="currentColor" d="M1006.3 196.5 c-48 -48 -87.3 -87.7 -87.3 -88.2 0 -0.5 17.7 -18.4 39.3 -39.9 31 -31 41 -40.3 47.8 -44.7 26.2 -17.2 57 -23.9 88.4 -19.2 68.8 10.3 116.3 78 102.6 146.5 -3.8 19.2 -13 39.5 -24.4 53.5 -4.3 5.3 -77.8 79.5 -78.7 79.4 -0.3 0 -39.8 -39.3 -87.7 -87.4z"/>
 </g>
</svg>
