<?xml version="1.0" standalone="no"?>
<!DOCTYPE svg PUBLIC "-//W3C//DTD SVG 20010904//EN"
 "http://www.w3.org/TR/2001/REC-SVG-20010904/DTD/svg10.dtd">
<svg version="1.0" xmlns="http://www.w3.org/2000/svg"
 width="20.000000pt" height="20.000000pt" viewBox="0 0 512.000000 512.000000"
 preserveAspectRatio="xMidYMid meet">

<g transform="translate(0.000000,512.000000) scale(0.100000,-0.100000)"
 stroke="none">
<path d="M2421 4815 c-35 -8 -91 -27 -125 -43 -92 -43 -1883 -1241 -1943
-1299 -71 -69 -128 -161 -161 -257 l-27 -81 0 -1230 0 -1230 27 -73 c38 -105
83 -176 158 -252 76 -75 147 -120 252 -158 l73 -27 1885 0 1885 0 73 27 c105
38 176 83 252 158 75 76 120 147 158 252 l27 73 0 1225 0 1225 -23 75 c-30 95
-88 195 -155 263 -59 61 -1849 1260 -1953 1309 -118 55 -270 71 -403 43z m933
-3547 c86 -26 166 -136 166 -228 0 -92 -80 -202 -166 -228 -59 -17 -1529 -17
-1588 0 -55 16 -138 99 -154 154 -28 94 -8 169 63 239 27 28 66 56 85 62 52
16 1538 17 1594 1z"/>
</g>
</svg>
