<?xml version="1.0" encoding="utf-8"?>
<!DOCTYPE svg PUBLIC "-//W3C//DTD SVG 20010904//EN" "http://www.w3.org/TR/2001/REC-SVG-20010904/DTD/svg10.dtd">
<svg version="1.0" xmlns="http://www.w3.org/2000/svg" width="1200px" height="1200px" viewBox="0 0 1200 1200" preserveAspectRatio="xMidYMid meet">
 <g fill="#525252">
  <path fill="currentColor" d="M529.5 1178 c-62.2 -0.8 -75.4 -1.7 -100.5 -7 -27 -5.7 -48.2 -8.6 -80 -11 -19.4 -1.4 -25.9 -2.7 -39.9 -7.6 -15.3 -5.5 -20.7 -6.7 -39.6 -9.3 -17.8 -2.5 -21.3 -3.5 -33.8 -9.5 -11.1 -5.4 -16.6 -6.9 -34.9 -9.5 -14.5 -2.1 -16.4 -2.8 -26.2 -9.5 -3.4 -2.3 -8.2 -4.7 -10.6 -5.4 -2.5 -0.6 -8.2 -2.1 -12.7 -3.3 -4.7 -1.2 -10.2 -3.4 -12.9 -5.2 -2.6 -1.8 -6.4 -4.4 -8.5 -5.8 -2.1 -1.4 -7.9 -4.1 -12.9 -5.8 -6.9 -2.5 -10.9 -4.7 -16.9 -9.5 -4.7 -3.8 -10.4 -7.2 -14.1 -8.6 -4.8 -1.8 -7.6 -3.7 -11.9 -8.2 -3.1 -3.3 -7.7 -7.2 -10.2 -8.8 -2.5 -1.5 -6.9 -5.4 -9.7 -8.6 -2.8 -3.3 -6.5 -6.8 -8.2 -7.9 -1.7 -1.1 -5.1 -4.9 -7.5 -8.5 -2.4 -3.6 -6.6 -8.5 -9.3 -11.1 -4.2 -3.9 -5.1 -5.4 -6.6 -11.5 -3.2 -12.3 -5.5 -18.6 -8.2 -22.1 -2.8 -3.7 -7.7 -6.3 -11.9 -6.3 l-2.5 0 0 -26.4 0 -26.4 4.7 -1.1 c5.2 -1.3 9.5 -4.8 12 -9.6 0.9 -1.6 3.1 -8.2 4.9 -14.5 3.2 -11.4 3.4 -11.6 9.3 -17 3.2 -3 7.3 -7.7 9 -10.5 1.6 -2.7 5.4 -6.8 8.3 -9 2.9 -2.3 7 -6.4 9.1 -9.2 2.8 -3.7 5.7 -6.1 10.7 -8.7 3.8 -2 9.4 -5.9 12.4 -8.7 3.3 -3 8.8 -6.5 13.8 -8.8 4.6 -2.1 11.4 -6.4 15.2 -9.5 5.5 -4.5 8.4 -6 15.4 -8.2 10.5 -3.2 13 -4.4 20.6 -10 6 -4.5 9.1 -5.7 25.7 -9.4 7.2 -1.5 11.3 -3.1 16 -6.1 11.9 -7.4 15.7 -8.8 30.5 -10.9 16.8 -2.3 22.7 -4 31.9 -9 9.1 -5 15.2 -6.7 28.3 -8 5.9 -0.6 15.5 -1.8 21.5 -2.6 12.9 -1.9 17.3 -1.4 25.2 3 6.3 3.5 7.4 5 13.3 18.5 1.3 2.9 5.2 8.3 8.5 12.1 3.6 3.9 7 8.8 8.1 11.6 1 2.7 3.9 7.5 6.3 10.6 6.8 8.9 8.5 14.1 6.2 19.1 -2.3 5 -6.2 5.9 -34.1 8.2 -23.6 2 -32 3.6 -42.3 8.2 -13.3 5.9 -20.4 8 -33 9.8 -15.3 2.1 -21.4 3.8 -29.5 8.3 -11.2 6.2 -13.8 7.2 -24.8 9.7 -13.9 3 -15.1 3.5 -23.8 9.9 -5.3 3.9 -9.2 5.9 -14.1 7.1 -10.3 2.8 -16.4 5.8 -20.8 10.5 -2.2 2.3 -7.4 5.9 -11.5 8 -5 2.5 -9.4 5.7 -13.1 9.6 -3.1 3.3 -7.7 7.6 -10.3 9.7 -6 5 -7.9 11.2 -8 25.2 -0.1 9.1 0.1 10.4 2.6 14.5 3.4 5.9 16.9 18.9 23.3 22.5 2.8 1.6 7.1 4.8 9.7 7.2 2.6 2.3 6.6 5.1 9 6.2 2.4 1.1 7.2 3.3 10.8 4.9 3.7 1.6 8.8 4.6 11.4 6.6 7.2 5.4 9.4 6.4 24.2 10.1 11.8 3 14.4 4 20 8 8.1 5.8 11.2 6.8 30.4 10 14.2 2.3 16.2 2.9 25.2 7.5 12.4 6.3 17.7 7.7 36.3 9.5 22.1 2.1 27.8 3.3 40.5 8 20 7.4 29.3 8.8 71.7 10.5 29 1.2 36 1.9 57.1 6.1 15.3 2.9 25.8 3.9 67.7 6 51.8 2.6 65.2 2.6 117 0 41.9 -2.1 52.4 -3.1 67.7 -6 21.7 -4.3 28.2 -4.9 56.3 -6.1 41.5 -1.7 52.3 -3.2 70.2 -10 13 -4.9 20.8 -6.5 38.3 -8 21 -1.8 27.1 -3.3 39.5 -9.4 11.1 -5.5 16.2 -7 34.9 -9.6 10.4 -1.5 14.4 -3.1 21.9 -8.3 6.4 -4.6 10.7 -6.2 23.7 -9.3 9.8 -2.3 13.4 -3.8 19.5 -8.3 7.4 -5.4 9.4 -6.6 15.8 -9 8.6 -3.1 11.5 -4.8 16.6 -9.5 2.5 -2.4 7.3 -5.9 10.7 -7.9 3.3 -2 9.7 -7.4 14.1 -12 9.8 -10.2 11.9 -15.1 11 -26.1 -1.1 -13.3 -2.4 -17.4 -7.4 -22 -2.5 -2.2 -7.5 -7.1 -11.1 -10.8 -4.3 -4.2 -9.1 -7.8 -13.2 -9.9 -3.6 -1.7 -9.1 -5.6 -12.3 -8.5 -5.2 -4.8 -6.9 -5.7 -17.1 -8.9 -9.2 -2.9 -12.5 -4.5 -18.3 -8.8 -3.9 -3 -8.9 -5.9 -11.4 -6.5 -2.4 -0.6 -9.1 -2.2 -14.7 -3.6 -7.5 -1.8 -12.5 -3.8 -18.1 -7 -10.3 -6.1 -14.3 -7.4 -30.1 -9.7 -17.5 -2.6 -19.4 -3.1 -32.5 -8.9 -13.5 -5.9 -20.7 -7.4 -45.3 -9.5 -27.9 -2.3 -31.8 -3.2 -34.1 -8.2 -2.3 -5 -0.6 -10.2 6.2 -19.1 2.4 -3.1 5.3 -7.9 6.3 -10.6 1.1 -2.8 4.5 -7.7 8.1 -11.6 3.3 -3.8 7.2 -9.2 8.5 -12.1 5.9 -13.5 7 -15 13.3 -18.5 7.9 -4.4 12.3 -4.9 25.2 -3 6 0.8 15.6 2 21.5 2.6 12.8 1.3 19.3 3.1 27.4 7.6 8 4.5 15.5 7 25 8.4 4.4 0.6 11.1 1.6 14.9 2.2 7.8 1.1 13.8 3.4 18.7 7.1 6.1 4.5 11.9 6.8 25 9.8 14.5 3.3 15.1 3.5 22.8 9.5 5.8 4.5 9.2 6 20.7 9.4 5.6 1.6 8.5 3.2 13 7.1 3.2 2.7 9.9 6.9 14.9 9.3 5.5 2.7 11.5 6.6 15.3 9.9 3.3 3 8.9 6.9 12.4 8.6 5 2.5 7.3 4.4 10.3 8.6 2.1 3 6.2 7 9 8.9 3.5 2.4 6.2 5.3 8.3 9 1.8 3 5.4 7.4 8.2 9.7 6.1 5.1 6.9 6.5 10.9 20.4 1.7 6 4 12.4 5.1 14.2 2.7 4.4 7.2 7.4 11.9 8 l4 0.6 0 25.7 0 25.8 -4.1 0.7 c-4.8 0.8 -10.2 5.2 -13 10.6 -1.1 2.2 -2.9 7.8 -4 12.6 -2.6 11 -2.8 11.4 -10.5 19.5 -3.5 3.6 -6.4 7.1 -6.4 7.7 0 1.8 -23.1 24.6 -26.7 26.5 -1.8 0.9 -6 4.5 -9.3 8 -4.8 5 -7.5 6.9 -12.8 9 -3.9 1.5 -9.8 5.1 -14.2 8.6 -5.2 4.2 -9.4 6.6 -14 8.1 -8.6 2.8 -14.6 5.8 -20.4 10.3 -6 4.6 -9.8 6.2 -20.5 8.7 -10.1 2.4 -15.9 4.8 -21.1 8.9 -5.9 4.7 -11.5 6.6 -24.2 8.4 -16.2 2.3 -22.2 4.1 -30 8.7 -9.6 5.7 -13.3 6.7 -30.8 8.9 -22.4 2.9 -30.8 4.7 -46 10 -15.8 5.5 -20.9 6.5 -46.5 8.5 -29.1 2.3 -52.7 5.6 -74.5 10.5 -22.6 5.1 -36.8 6 -111.5 7 -38.5 0.5 -70.7 0.9 -71.5 0.8 -0.8 -0.1 -27.1 -0.5 -58.5 -0.8z"/>
  <path fill="currentColor" d="M593.5 937.3 c-5.4 -1.5 -32.3 -10.7 -34.6 -11.9 -4.6 -2.3 -12.6 -10.3 -19.2 -19.2 -3.6 -4.8 -7.9 -9.7 -9.6 -10.9 -1.8 -1.4 -4.4 -5.3 -6.5 -9.6 -2.3 -4.9 -5.2 -9 -8.6 -12.3 -3.3 -3.1 -6.6 -7.7 -9 -12.5 -2.2 -4.2 -6.4 -10.5 -9.5 -14 -3.1 -3.5 -7.4 -9.9 -9.5 -14.1 -2.7 -5.2 -5.4 -8.9 -8.5 -11.5 -3.2 -2.6 -5.7 -6 -8.2 -11.1 -1.9 -4.1 -6 -10.1 -9 -13.5 -3.1 -3.4 -7.5 -10 -9.8 -14.7 -2.7 -5.3 -6.1 -10.2 -9 -13 -3.2 -3.1 -6 -7.2 -8.6 -12.9 -2.2 -4.6 -6.1 -10.9 -8.8 -14 -2.7 -3.1 -6.8 -9.4 -9.1 -14.1 -2.7 -5.4 -6.3 -10.7 -10.1 -14.7 -3.3 -3.4 -5.9 -6.6 -5.9 -7.3 0 -3.7 -6.8 -16.8 -11.6 -22.3 -3.8 -4.4 -6.3 -8.5 -8.4 -14.1 -2.1 -5.5 -4.7 -9.9 -8.4 -14.2 -3.7 -4.3 -6.6 -9.3 -9.5 -16.2 -2.9 -6.8 -5.8 -11.9 -9.1 -15.6 -2.6 -3 -5.5 -7.4 -6.3 -9.8 -0.8 -2.4 -2.5 -7.2 -3.8 -10.6 -1.4 -4.2 -3.8 -8.1 -6.9 -11.5 -5.5 -6.1 -7.2 -9.1 -9.5 -17.2 -2.3 -7.8 -4.9 -13 -9.5 -18.5 -5 -6 -6.4 -9.1 -8.4 -18 -2.2 -9.4 -4.7 -15.2 -9 -20.4 -4.9 -6.1 -6.2 -9.1 -9.7 -23 -2.6 -10.6 -4.1 -14.2 -8.6 -21.6 -5.6 -9.3 -5.6 -9.3 -10.2 -33.6 -1.1 -6.3 -3.5 -13.9 -6.1 -20 -6.5 -14.8 -7.9 -21.1 -9.2 -39 -1.3 -18.6 0.1 -56.4 2.6 -67.5 0.8 -3.6 3.3 -11.5 5.6 -17.5 2.2 -6 5 -15.8 6.1 -21.9 4.7 -24.8 5.9 -29.8 8.4 -33.9 1.5 -2.2 4.1 -6.5 6 -9.4 1.8 -2.9 4.3 -9 5.5 -13.5 3.1 -11.9 3.9 -13.6 9.6 -19.8 3.7 -4 6.1 -8.1 9 -15 3.1 -7.5 4.9 -10.4 9 -14.4 2.9 -2.7 6.7 -7.8 8.4 -11.2 2 -3.8 5.2 -7.8 8.1 -10.3 2.7 -2.3 6.7 -6.8 8.9 -10 2.2 -3.3 6 -7.3 8.3 -8.9 2.4 -1.6 6.2 -5.5 8.5 -8.5 2.3 -3.1 6.6 -7.1 9.5 -9 3 -1.8 7 -5.6 9 -8.3 2.3 -3.1 5.5 -6 8.9 -7.8 2.9 -1.5 8.2 -5.6 11.8 -9 4.6 -4.4 8.2 -6.8 12.3 -8.4 8.6 -3.2 10.6 -4.4 17.5 -10.5 5.3 -4.7 7.5 -5.9 15 -8.2 10.3 -3.1 13.4 -4.6 18.7 -8.9 6.5 -5.2 10 -6.6 23.7 -9 15.5 -2.9 20.9 -4.5 30.8 -9.7 10.5 -5.4 19 -6.7 53.5 -7.8 33.2 -1.1 86.4 0.2 99.1 2.4 5.5 0.9 10.8 2.8 17 5.9 9.8 4.9 15.6 6.7 30.4 9.2 11.2 1.9 15.9 3.8 23.4 9.5 3.8 2.9 8.8 5.3 15.4 7.5 12.1 4 12.8 4.3 19.6 10.4 3.7 3.1 8.6 6.1 14.5 8.5 7.3 3.1 9.6 4.5 13.1 8.7 2.3 2.7 6.6 6.3 9.5 8 5.5 3.1 8.6 5.7 12 9.9 1.1 1.4 4 4.1 6.5 6 6.1 4.7 24 22.5 27.7 27.7 1.7 2.4 5.4 6.4 8.2 8.9 2.8 2.5 6.5 7.2 8.2 10.3 1.7 3.4 5.3 7.8 8.2 10.3 4.5 3.9 5.7 5.8 8.5 13 2.3 6 4.6 10.1 8.2 14.2 6.1 7 7.4 9.3 9.9 18.3 2.3 8.5 4.1 12.2 9.2 18.9 5.2 6.8 6.4 10.1 8.3 22.4 2.6 16.5 4.2 22.3 9.1 33 2.5 5.4 5.2 13 6.1 16.7 3 13.9 3.6 88.5 0.9 104.9 -1.2 7 -3.7 13.8 -7.6 20.5 -4 6.7 -6.3 14.4 -9.4 32.3 -1.7 9.8 -3.4 13.7 -11.3 27.6 -1.8 3.2 -4 9.5 -5.3 15 -2.5 11 -3.6 13.5 -9.5 21 -4.7 6.1 -6.5 10.1 -9 20.5 -2 8.4 -3.4 11.3 -8.6 17.8 -4.9 6.2 -6.4 9.1 -8.8 17 -1.9 6.3 -5.1 11.6 -11.5 19.5 -2.1 2.7 -4.3 7.1 -5.6 11.5 -2.9 9.7 -5 13.5 -10.8 20.2 -3.8 4.4 -5.8 7.9 -8.3 14.9 -2.6 7.4 -4.2 10.2 -8.8 15.1 -3 3.3 -6.4 8 -7.4 10.5 -5.2 12.3 -6.7 14.9 -11.4 20.4 -3.1 3.7 -6.1 8.6 -7.8 12.9 -1.9 5.1 -4.4 8.9 -8.9 13.8 -4.8 5.2 -7 8.7 -9.6 15.1 -2.4 6.1 -4.7 9.7 -8.6 13.9 -3.2 3.4 -6.5 8.3 -8.6 13 -2.1 4.4 -5.7 10 -9.1 13.7 -3.6 4 -7.3 9.7 -10 15.5 -3.2 6.7 -5.5 10.1 -8.5 12.5 -2.6 2.1 -5.5 6.1 -8.2 11.3 -2.7 5.3 -5.6 9.2 -8.5 11.5 -3.1 2.6 -5.7 6.4 -9.5 13.7 -3.3 6.3 -7.2 12.3 -10.5 15.7 -2.8 3 -6.6 8.4 -8.3 12 -2.1 4.5 -4.6 7.9 -8.1 10.8 -3.6 3.1 -6.2 6.6 -9 12.2 -2.5 5 -6.6 10.8 -11.2 15.8 -4 4.4 -9.4 10.4 -12 13.4 -5.5 6.5 -7.3 7.4 -27.8 14.5 -12 4.2 -17.2 5.5 -23 5.8 -4.1 0.2 -8.4 0.1 -9.5 -0.2z m23.3 -346.3 c14.3 -1.6 19.7 -2.8 28.7 -6.8 5.2 -2.2 13.1 -4.5 22.3 -6.3 16.5 -3.3 21.1 -5.1 28.7 -11.3 3 -2.4 8 -5.4 11.1 -6.5 8.5 -3.2 11.3 -4.9 16.8 -10.1 2.8 -2.6 7.8 -6.4 11.1 -8.5 10 -6.2 35.3 -33.2 40.1 -42.8 1.5 -2.8 5 -7.7 7.9 -10.8 4.2 -4.6 5.8 -7.4 8.4 -15 1.8 -5.2 5.7 -13.4 8.7 -18.4 6.2 -10.4 8 -16.5 9.4 -31.9 0.6 -6.1 1.5 -15.6 2.1 -21.1 2.4 -22.8 2.6 -28.4 1.8 -36 -0.4 -4.4 -1.7 -17.4 -2.9 -29 -2.6 -27.8 -4.3 -33.7 -12.9 -46.5 -1.7 -2.5 -4.4 -8.5 -6.1 -13.5 -2.3 -7 -4.1 -10.3 -8 -14.8 -2.8 -3.3 -6.9 -9.1 -9.2 -13 -2.3 -4 -7.3 -10.3 -11 -14 -3.8 -3.8 -8.6 -9.3 -10.8 -12.3 -2.4 -3.2 -6.8 -7.2 -10.8 -9.9 -3.7 -2.5 -8.5 -6.1 -10.7 -8.1 -7 -6.4 -10.2 -8.4 -18.7 -12 -5.4 -2.3 -9.8 -5 -12.8 -7.9 -6.1 -5.8 -8.6 -6.9 -22.6 -9.8 -9.1 -1.9 -14.2 -3.6 -21.2 -7.1 -5.1 -2.6 -12.1 -5.3 -15.6 -6.1 -10.7 -2.5 -37.8 -3.7 -55.9 -2.5 -21.2 1.3 -25 2.2 -38.7 8.5 -7.5 3.5 -14.4 5.9 -20 7 -13.6 2.6 -17.4 4.2 -23.8 9.9 -4 3.6 -8.4 6.3 -13.2 8.2 -5 1.9 -9.2 4.6 -13.5 8.4 -3.4 3 -9.8 8.1 -14.3 11.4 -4.9 3.5 -10.6 8.9 -14.4 13.5 -3.4 4.2 -9.1 10.7 -12.6 14.6 -3.5 3.8 -7.8 9.7 -9.4 13 -1.7 3.3 -5.1 8.2 -7.5 10.9 -5.6 6.2 -6.5 8.1 -10.4 20.2 -1.7 5.5 -4.9 12.9 -7.1 16.6 -5.2 8.7 -7.4 14.8 -8.7 23.9 -1.7 11.4 -2.5 65 -1.3 83.4 1.6 23.4 2.9 28.2 11 41.1 2.2 3.5 4.8 9.7 6.1 14.5 2.9 10.5 5.9 16.4 10.6 20.9 2 1.9 5.2 6.5 7.1 10.2 2.2 4.4 5.6 8.8 9.5 12.5 3.3 3.2 6.8 7.1 7.6 8.8 2.3 4.3 22 23.3 26.7 25.7 2.2 1.1 6.8 4.7 10.2 8 4.7 4.5 8.1 6.7 14.4 9.3 4.5 1.9 10.5 5.2 13.4 7.4 7.7 6 14.7 8.7 28.6 11.1 9.3 1.5 14.7 3.1 21 6 14.3 6.6 38.5 9.3 60.8 7z"/>
  <path fill="currentColor" d="M584.3 494.5 c-4.6 -0.8 -10.5 -3 -17 -6.2 -5.4 -2.8 -13.2 -6 -17.3 -7.3 -10.4 -3.1 -14 -5.1 -21.8 -12.3 -3.7 -3.5 -8.8 -7.8 -11.4 -9.7 -5.1 -3.6 -7.9 -7.2 -12.8 -16.9 -1.7 -3.5 -5.1 -8.4 -7.4 -11 -5.6 -6 -7.1 -9.1 -8.5 -17.6 -3.4 -22.1 -4 -43.9 -1.6 -65.3 2.2 -19.3 3.1 -22.2 10.4 -30.6 2.2 -2.6 6.1 -8.6 8.6 -13.5 3.6 -7 5.5 -9.5 8.8 -11.6 2.3 -1.5 7.1 -5.8 10.7 -9.6 6.1 -6.5 7.2 -7.2 16.7 -10.8 5.6 -2.1 13.1 -5.7 16.5 -7.9 3.5 -2.3 7.9 -4.8 9.8 -5.6 12.6 -5.2 58.1 -4.6 69 0.9 1.9 0.9 4.9 2.7 6.5 4 4.2 3.1 12 6.9 18.5 9 8.4 2.7 10.6 4.1 14.1 9 1.7 2.4 5 5.7 7.3 7.2 6.7 4.5 8.7 6.5 11.7 12.5 1.6 3.1 5.3 8.4 8.2 11.7 6 6.7 7.7 11.1 10.2 25.6 0.9 5 2.2 12.8 3 17.4 2.3 12.9 1.9 25.2 -1.6 46.5 -3.3 21.2 -5.1 26.3 -11.9 33.9 -2.3 2.6 -6.1 8.3 -8.4 12.5 -3.6 6.7 -5 8.3 -10.9 12.3 -3.8 2.5 -8.2 6.3 -9.8 8.3 -3.9 4.7 -9.4 7.7 -19.9 11.1 -4.7 1.4 -13 4.9 -18.5 7.6 -15.2 7.5 -32.9 9.7 -51.2 6.4z"/>
 </g>
</svg>
