<?xml version="1.0" standalone="no"?>
<!DOCTYPE svg PUBLIC "-//W3C//DTD SVG 20010904//EN"
 "http://www.w3.org/TR/2001/REC-SVG-20010904/DTD/svg10.dtd">
<svg version="1.0" xmlns="http://www.w3.org/2000/svg"
 width="20.000000pt" height="20.000000pt" viewBox="0 0 512.000000 512.000000"
 preserveAspectRatio="xMidYMid meet">

<g transform="translate(0.000000,512.000000) scale(0.100000,-0.100000)"
stroke="none">
<path d="M1355 5113 c-201 -24 -375 -76 -544 -163 -411 -213 -701 -605 -787
-1065 -18 -94 -19 -171 -19 -1325 0 -1154 1 -1231 19 -1325 115 -617 594
-1096 1211 -1211 94 -18 171 -19 1335 -19 l1235 0 105 23 c463 102 829 377
1039 782 68 130 109 247 143 400 l23 105 0 1235 c0 1164 -1 1241 -19 1335
-107 576 -532 1036 -1093 1185 -182 49 -210 50 -1453 48 -641 0 -1178 -3
-1195 -5z m920 -934 c99 -50 151 -163 126 -273 -16 -71 -66 -137 -128 -167
-47 -23 -56 -24 -388 -29 -369 -5 -370 -6 -405 -63 -19 -31 -20 -60 -20 -1087
0 -1027 1 -1056 20 -1087 35 -57 36 -58 405 -63 l341 -5 49 -26 c99 -50 151
-163 126 -273 -16 -71 -66 -137 -128 -167 -48 -24 -51 -24 -448 -27 -271 -2
-419 1 -460 8 -181 35 -341 182 -387 359 -15 61 -17 165 -17 1281 0 1116 2
1220 17 1281 44 169 192 312 365 355 39 9 161 12 467 11 l416 -2 49 -26z m835
-490 c34 -15 161 -136 518 -492 260 -260 485 -492 500 -517 23 -38 27 -56 27
-120 0 -64 -4 -82 -27 -120 -15 -25 -240 -257 -500 -517 -357 -356 -484 -477
-518 -492 -129 -58 -284 8 -335 143 -21 55 -17 144 10 197 9 19 130 148 268
287 l251 252 -670 0 -671 0 -62 31 c-69 34 -112 88 -132 164 -32 116 47 251
170 293 24 9 221 12 700 12 l665 0 -251 253 c-138 138 -259 267 -268 286 -27
53 -31 142 -10 197 51 135 206 201 335 143z"/>
</g>
</svg>
