<?xml version="1.0" standalone="no"?>
<!DOCTYPE svg PUBLIC "-//W3C//DTD SVG 20010904//EN"
 "http://www.w3.org/TR/2001/REC-SVG-20010904/DTD/svg10.dtd">
<svg version="1.0" xmlns="http://www.w3.org/2000/svg"
 width="20.000000pt" height="20.000000pt" viewBox="0 0 512.000000 512.000000"
 preserveAspectRatio="xMidYMid meet">

<g transform="translate(0.000000,512.000000) scale(0.100000,-0.100000)"
 stroke="none">
<path d="M2098 4360 c-757 -46 -1477 -354 -2015 -864 l-84 -79 292 -293 292
-292 91 80 c380 338 817 538 1311 603 242 32 580 17 819 -36 414 -90 823 -305
1114 -583 l63 -60 287 293 c158 162 288 297 290 301 4 10 -208 197 -315 277
-275 210 -651 406 -973 508 -365 115 -790 168 -1172 145z"/>
<path d="M2100 3040 c-277 -25 -572 -125 -826 -281 -90 -55 -266 -194 -327
-256 l-38 -40 296 -287 295 -288 40 34 c231 190 392 263 641 289 294 31 610
-71 826 -266 l50 -44 74 75 74 74 -140 140 -140 140 205 205 c112 112 202 206
200 208 -3 2 -41 24 -85 50 -195 112 -431 195 -655 231 -121 19 -366 27 -490
16z"/>
<path d="M3457 2533 l-197 -198 267 -267 268 -268 -265 -265 -265 -265 198
-197 197 -198 265 265 265 265 265 -265 265 -265 200 200 200 200 -265 265
-265 265 265 265 265 265 -197 197 -198 198 -265 -265 -265 -265 -265 265
c-146 146 -267 265 -270 265 -3 0 -94 -89 -203 -197z"/>
<path d="M2191 1690 c-114 -24 -235 -108 -298 -208 -53 -83 -74 -154 -74 -252
1 -137 44 -242 137 -336 220 -220 598 -166 743 105 59 112 74 220 46 340 -37
156 -161 290 -313 337 -60 18 -185 26 -241 14z"/>
</g>
</svg>
