<?xml version="1.0" standalone="no"?>
<!DOCTYPE svg PUBLIC "-//W3C//DTD SVG 20010904//EN"
 "http://www.w3.org/TR/2001/REC-SVG-20010904/DTD/svg10.dtd">
<svg version="1.0" xmlns="http://www.w3.org/2000/svg"
 width="20.000000pt" height="20.000000pt" viewBox="0 0 512.000000 512.000000"
 preserveAspectRatio="xMidYMid meet">

<g transform="translate(0.000000,512.000000) scale(0.100000,-0.100000)"
stroke="none">
<path d="M1005 4845 c-191 -34 -329 -109 -475 -255 -148 -148 -221 -285 -256
-480 -20 -110 -20 -2990 0 -3100 35 -195 108 -332 256 -480 115 -115 202 -172
332 -217 154 -54 111 -52 1694 -53 1613 0 1563 -2 1720 59 128 50 211 106 319
215 143 144 217 284 251 476 20 110 20 2990 0 3100 -35 195 -108 332 -256 480
-113 113 -184 161 -312 210 -160 62 -106 60 -1727 59 -1153 -1 -1491 -4 -1546
-14z m1785 -845 c11 -11 20 -30 21 -42 0 -13 6 -74 12 -137 l12 -115 90 -31
c92 -32 180 -73 227 -106 14 -11 31 -19 38 -19 7 0 58 38 115 85 64 52 113 85
127 85 31 0 308 -275 308 -307 0 -12 -40 -71 -95 -139 -53 -64 -94 -120 -92
-123 32 -58 84 -183 103 -250 13 -46 26 -86 28 -88 2 -2 66 -11 142 -19 77 -8
147 -17 157 -20 31 -10 37 -49 37 -243 0 -169 -2 -190 -18 -204 -13 -12 -59
-21 -161 -32 -79 -8 -152 -15 -162 -15 -11 0 -21 -6 -23 -12 -21 -69 -64 -167
-99 -230 l-44 -75 104 -126 c76 -93 103 -133 103 -153 0 -40 -263 -304 -302
-304 -19 0 -66 32 -162 110 l-135 109 -83 -38 c-46 -22 -115 -48 -153 -60
l-71 -21 -17 -172 c-14 -154 -19 -175 -38 -190 -19 -16 -45 -18 -214 -18 -169
0 -195 2 -214 18 -19 15 -23 36 -37 182 -8 91 -18 171 -22 178 -4 7 -43 26
-87 41 -44 15 -109 42 -144 60 -34 18 -68 30 -75 28 -6 -3 -67 -50 -135 -106
-85 -70 -130 -101 -148 -101 -20 0 -57 30 -155 128 -72 70 -136 139 -144 155
-19 35 -16 40 106 189 l98 119 -44 87 c-24 47 -54 118 -66 157 -13 38 -26 73
-31 76 -4 3 -72 11 -150 18 -137 13 -174 21 -189 45 -4 6 -8 97 -8 202 0 168
2 194 18 213 15 19 36 23 166 36 89 9 153 20 157 27 4 6 10 27 14 47 9 47 60
175 95 238 l29 51 -80 98 c-101 122 -112 139 -105 161 3 11 71 83 150 162 126
125 147 142 168 136 13 -4 69 -45 125 -91 56 -46 106 -84 112 -84 6 0 39 15
73 34 68 36 177 79 246 96 23 6 42 14 42 18 0 4 7 65 15 136 10 91 19 134 31
147 16 17 34 19 216 19 185 0 199 -1 218 -20z"/>
<path d="M2436 3064 c-182 -44 -337 -201 -381 -385 -88 -373 251 -712 624
-624 276 66 451 348 386 624 -66 277 -351 452 -629 385z"/>
</g>
</svg>
