<?xml version="1.0" encoding="utf-8"?>
<!DOCTYPE svg PUBLIC "-//W3C//DTD SVG 20010904//EN" "http://www.w3.org/TR/2001/REC-SVG-20010904/DTD/svg10.dtd">
<svg version="1.0" xmlns="http://www.w3.org/2000/svg" width="40px" height="40px" viewBox="0 0 1200 1200" preserveAspectRatio="xMidYMid meet">
 <g fill="#525252">
  <path fill="currentColor" d="M30 1086.1 c-13.6 -2.8 -24.1 -13.4 -28.9 -29.2 -1.6 -5.1 -1.5 -233.8 0 -238.8 4.1 -13.1 10.4 -21.1 20.7 -26.2 l6.7 -3.4 42 -0.5 42 -0.5 0.5 -98 c0.4 -81.4 0.7 -98.6 1.9 -101.5 3.7 -9.2 10.5 -16.5 19.6 -21.3 l6 -3.2 211 -0.5 211 -0.5 0 -75 0 -75 -42 -0.5 -42 -0.5 -5.9 -2.9 c-11.9 -5.9 -18.9 -14.9 -21.2 -27.5 -2 -11.2 -2 -226 0 -237.2 2.3 -12.6 10.1 -22.5 22.1 -28.1 l5 -2.3 121.5 0 121.5 0 5.5 2.6 c12.5 5.9 20 16.3 22 30.4 1.7 12.5 0.9 232.4 -1 238.5 -3.1 10.2 -10.4 18.6 -20.6 23.6 l-5.9 2.9 -42 0.5 -42 0.5 0 75 0 75 211.2 0.5 c167.1 0.4 211.5 0.8 212.5 1.7 0.6 0.7 1.9 1.3 2.8 1.3 3.1 0 12.7 7.9 16.2 13.2 6.7 10.5 6.2 2.7 6.8 110.3 l0.5 98 42 0.5 42 0.5 6.7 3.4 c3.8 1.8 8.6 5.3 10.7 7.6 4.6 5 9.1 13.4 9.1 16.9 0 1.4 0.5 2.8 1 3.1 1.4 0.9 1.4 235.1 0 236 -0.5 0.3 -1 1.8 -1 3.2 0 4 -5.9 14.1 -10.9 18.5 -2.5 2.2 -7.1 5.3 -10.1 6.7 l-5.5 2.6 -121.5 0 -121.5 0 -5.5 -2.7 c-10.8 -5.3 -18.3 -14 -20.8 -24 -1.7 -6.7 -1.7 -237.9 0 -244.6 2.4 -9.9 10 -18.7 20.4 -23.8 l5.9 -2.9 42 -0.5 42 -0.5 0 -75 0 -75 -187.5 0 -187.5 0 0 75 0 75 42 0.5 42 0.5 5.9 2.9 c11.9 5.9 18.9 14.9 21.2 27.5 1.7 9.9 2.1 223.9 0.3 235.4 -2 13.4 -9.8 23.8 -21.9 29.6 l-5.5 2.6 -121.5 0 -121.5 0 -5.6 -2.8 c-12.4 -6 -19.8 -16 -21.8 -29.4 -1.8 -11.5 -1.4 -225.5 0.3 -235.4 2.3 -12.6 9.3 -21.6 21.2 -27.5 l5.9 -2.9 42 -0.5 42 -0.5 0 -75 0 -75 -187.5 0 -187.5 0 0 75 0 75 42 0.5 42 0.5 5.6 2.6 c10.2 4.8 18.3 14.2 20.7 24.1 1.7 6.7 1.7 237.9 0 244.6 -2.4 9.9 -10.9 19.5 -21.3 24.4 l-5 2.3 -119 0.1 c-65.5 0.1 -120.6 -0.1 -122.5 -0.5z"/>
 </g>
 <g fill="#505050">
  <path d="M30.5 1086.3 c-1.6 -0.3 -3.4 -0.8 -3.8 -1.2 -0.4 -0.4 1.8 -0.4 4.9 0 3.1 0.4 5.8 1 6.2 1.3 0.6 0.6 -2.4 0.6 -7.3 -0.1z"/>
  <path d="M263.5 1086.1 c1.1 -0.5 3.5 -1 5.3 -1 1.8 -0.1 4 -0.5 5 -1 6.1 -3.3 10.2 -5 9.6 -4 -1.2 2 -10.7 5.6 -16.4 6.3 -3.7 0.4 -4.8 0.3 -3.5 -0.3z"/>
  <path d="M480.5 1086.3 c-1.6 -0.3 -3.4 -0.8 -3.8 -1.2 -0.4 -0.4 1.8 -0.4 4.9 0 3.1 0.4 5.8 1 6.2 1.3 0.6 0.6 -2.4 0.6 -7.3 -0.1z"/>
  <path d="M712.2 1086.5 c0.3 -0.3 3.1 -1 6.2 -1.4 3.1 -0.4 5.3 -0.4 4.9 0 -1 0.9 -12 2.4 -11.1 1.4z"/>
  <path d="M930 1086 c-4.3 -0.9 -9.9 -3.3 -12.5 -5.4 -1.8 -1.5 2.8 0.4 8.7 3.5 1 0.5 3.2 0.9 5 1 1.8 0 4.2 0.4 5.3 0.9 1.8 0.8 1.8 0.9 -0.5 0.8 -1.4 0 -4.1 -0.4 -6 -0.8z"/>
  <path d="M1162.2 1086.5 c0.3 -0.3 3.1 -1 6.2 -1.4 3.1 -0.4 5.3 -0.4 4.9 0 -1 0.9 -12 2.4 -11.1 1.4z"/>
  <path d="M19.3 1082 c-4.7 -2.8 -4.1 -3.4 1 -0.8 5.2 2.6 5.4 2.8 3.6 2.8 -0.8 0 -2.9 -0.9 -4.6 -2z"/>
  <path d="M469.3 1081.9 c-4.6 -2.9 -4.1 -3.3 1 -0.7 5.2 2.6 5.4 2.8 3.6 2.8 -0.8 0 -2.9 -1 -4.6 -2.1z"/>
  <path d="M725.1 1083.7 c1.3 -1.1 8.9 -4.6 8.9 -4.2 0 0.9 -6.4 4.5 -7.9 4.5 -0.8 0 -1.2 -0.1 -1 -0.3z"/>
  <path d="M1175.1 1083.7 c1.3 -1.1 8.9 -4.6 8.9 -4.2 0 0.9 -6.4 4.5 -7.9 4.5 -0.8 0 -1.2 -0.1 -1 -0.3z"/>
  <path d="M10.7 1075.1 c-4 -4.4 -7.3 -10.1 -5.8 -10.1 0.5 0 1.2 1.1 1.5 2.4 0.3 1.3 2.4 4.2 4.7 6.5 2.3 2.3 4 4.4 3.7 4.7 -0.3 0.2 -2.1 -1.3 -4.1 -3.5z"/>
  <path d="M285 1078.7 c0 -0.3 1.2 -1.9 2.8 -3.5 1.5 -1.5 3.8 -4.1 5 -5.8 l2.3 -2.9 -1.8 3.3 c-1.7 3.2 -8.3 10.2 -8.3 8.9z"/>
  <path d="M460.7 1075.1 c-3.4 -3.8 -7.3 -10.1 -6.3 -10.1 0.3 0 1.2 1.2 2 2.8 0.8 1.5 3 4.4 5 6.6 2.1 2.1 3.5 4 3.3 4.2 -0.2 0.3 -2 -1.3 -4 -3.5z"/>
  <path d="M735 1078.8 c0 -0.4 1.6 -2.4 3.6 -4.5 2 -2.1 4.2 -5 5 -6.5 0.8 -1.6 1.7 -2.8 2 -2.8 1.2 0 -4.1 8.1 -7.3 11.2 -1.8 1.7 -3.3 2.9 -3.3 2.6z"/>
  <path d="M910.7 1075.1 c-1.9 -2.2 -4 -5 -4.7 -6.3 -0.8 -1.7 -0.5 -1.5 1.2 0.6 1.2 1.7 3.5 4.3 5.1 5.9 1.6 1.6 2.6 3.1 2.4 3.3 -0.2 0.3 -2 -1.3 -4 -3.5z"/>
  <path d="M1185 1078.6 c0 -0.5 1.8 -2.6 4 -4.8 2.2 -2.3 4.3 -5.1 4.6 -6.4 0.3 -1.3 1 -2.4 1.6 -2.4 1.5 0 -3.2 7.6 -6.9 11.2 -1.8 1.7 -3.3 2.8 -3.3 2.4z"/>
  <path d="M295.6 1063.5 c0.3 -1.6 1.1 -3.4 1.6 -4 0.6 -0.6 0.7 0.1 0.2 2 -0.3 1.7 -1.1 3.5 -1.6 4 -0.6 0.6 -0.7 -0.1 -0.2 -2z"/>
  <path d="M903.7 1065.3 c-1 -1.9 -1.8 -6.7 -0.9 -5.8 1 1.1 2.5 6.5 1.8 6.5 -0.3 0 -0.7 -0.3 -0.9 -0.7z"/>
  <path d="M2.5 1061.4 c-0.4 -1.6 -1.1 -3.9 -1.6 -5.2 -1.1 -2.8 -1.2 -6.2 -0.1 -6.2 0.8 0 3.4 13.1 2.7 13.8 -0.2 0.3 -0.7 -0.9 -1 -2.4z"/>
  <path d="M452.7 1062.6 c-0.4 -1 -0.5 -2.1 -0.2 -2.4 0.9 -0.9 1.7 0.6 1.3 2.5 -0.3 1.7 -0.4 1.7 -1.1 -0.1z"/>
  <path d="M746 1062.3 c0 -1.3 0.5 -2.3 1 -2.3 1.3 0 1.3 1.1 0 3 -0.8 1.2 -1 1.1 -1 -0.7z"/>
  <path d="M1196.4 1061.7 c0.4 -1.5 0.9 -4.7 1.3 -7.2 0.3 -2.5 1 -4.5 1.4 -4.5 1.2 0 1.1 4.7 -0.1 5.5 -0.5 0.3 -1 1.8 -1 3.3 0 1.5 -0.5 3.4 -1.1 4.2 -0.8 1.2 -0.9 0.9 -0.5 -1.3z"/>
  <path d="M298.5 937.5 c0 -66 0.1 -93.1 0.2 -60.3 0.2 32.8 0.2 86.8 0 120 -0.1 33.2 -0.2 6.3 -0.2 -59.7z"/>
  <path d="M450.9 1053 c-0.6 -4.5 -0.4 -5.8 0.7 -4.8 0.3 0.3 0.4 2.6 0.2 4.9 l-0.3 4.4 -0.6 -4.5z"/>
  <path d="M748 1052.7 c0 -2.6 0.4 -4.7 0.9 -4.7 0.8 0 0.3 7.9 -0.5 8.9 -0.2 0.2 -0.4 -1.7 -0.4 -4.2z"/>
  <path d="M901.5 937.5 c0 -66 0.1 -93.1 0.2 -60.3 0.2 32.8 0.2 86.8 0 120 -0.1 33.2 -0.2 6.3 -0.2 -59.7z"/>
  <path d="M450.7 822.8 c0.8 -5.9 1.3 -6.1 1.3 -0.5 0 2.6 -0.4 4.7 -0.9 4.7 -0.5 0 -0.7 -1.9 -0.4 -4.2z"/>
  <path d="M748 822.3 c0 -2.5 0.2 -4.4 0.4 -4.2 0.8 1 1.3 8.9 0.5 8.9 -0.5 0 -0.9 -2.1 -0.9 -4.7z"/>
  <path d="M0 823.3 c0 -1.8 1.7 -7.4 3.2 -10.8 0.7 -1.6 0.7 -1.4 0.3 0.8 -0.3 1.5 -0.8 4.7 -1.2 7.2 -0.5 4.3 -2.3 6.4 -2.3 2.8z"/>
  <path d="M1197.7 820.5 c-0.4 -2.5 -0.9 -5.7 -1.3 -7.2 -0.4 -2.2 -0.3 -2.5 0.5 -1.3 0.6 0.8 1.1 2.7 1.1 4.2 0 1.5 0.5 3 1 3.3 1.2 0.8 1.3 5.5 0.1 5.5 -0.4 0 -1.1 -2 -1.4 -4.5z"/>
  <path d="M296.7 815.3 c-1 -1.9 -1.8 -6.7 -0.9 -5.8 1 1.1 2.5 6.5 1.8 6.5 -0.3 0 -0.7 -0.3 -0.9 -0.7z"/>
  <path d="M902.6 813.5 c0.3 -1.6 1.1 -3.4 1.6 -4 0.6 -0.6 0.7 0.1 0.2 2 -0.3 1.7 -1.1 3.5 -1.6 4 -0.6 0.6 -0.7 -0.1 -0.2 -2z"/>
  <path d="M452.6 812.8 c1.1 -3.5 6.8 -12 10 -14.9 3.6 -3.2 10.3 -7.3 11 -6.6 0.3 0.2 -1.4 1.4 -3.6 2.6 -7.2 3.7 -16 14.2 -16 19.1 0 1.1 -0.5 2 -1.1 2 -0.6 0 -0.8 -0.9 -0.3 -2.2z"/>
  <path d="M746 813 c0 -3.9 -10 -17 -13 -17 -0.5 0 -1 -0.5 -1 -1 0 -1.6 3 0.3 6.6 4.2 5.6 5.9 10.9 15.8 8.5 15.8 -0.6 0 -1.1 -0.9 -1.1 -2z"/>
  <path d="M5.5 806.9 c2.5 -4.7 8.1 -10.5 13.1 -13.4 2.5 -1.5 4.8 -2.5 5 -2.2 0.3 0.2 -1.4 1.5 -3.8 2.7 -4.9 2.5 -12.6 10.4 -13.4 13.8 -0.4 1.2 -1 2.2 -1.5 2.2 -0.5 0 -0.2 -1.4 0.6 -3.1z"/>
  <path d="M1193.6 807.8 c-0.8 -3.4 -8.5 -11.3 -13.4 -13.8 -2.4 -1.2 -4.1 -2.5 -3.8 -2.7 0.9 -0.9 9.5 4.9 13 8.7 3.9 4.3 7.2 10 5.7 10 -0.5 0 -1.1 -1 -1.5 -2.2z"/>
  <path d="M292.7 805.7 c-2.4 -3.8 -8.3 -9.7 -9.6 -9.7 -0.6 0 -1.1 -0.4 -1.1 -0.9 0 -0.5 -1.4 -1.4 -3.2 -2 -1.7 -0.6 -2.8 -1.4 -2.5 -1.7 1.8 -1.8 14.5 8.7 17.7 14.5 1.5 2.8 0.6 2.7 -1.3 -0.2z"/>
  <path d="M906 806.2 c2.5 -5.1 12 -14 12 -11.2 0 0.5 -0.5 1 -1.1 1 -1.2 0 -6 4.7 -9.8 9.7 -1.8 2.2 -2 2.3 -1.1 0.5z"/>
  <path d="M728.3 793 c-1.3 -0.5 -2.3 -1.2 -2.3 -1.5 0 -0.9 1.6 -0.5 3.6 1 2.2 1.6 1.9 1.8 -1.3 0.5z"/>
  <path d="M920.4 792.5 c2.2 -1.7 4 -2 3.2 -0.6 -0.3 0.5 -1.6 1.1 -2.8 1.4 -2.2 0.6 -2.2 0.5 -0.4 -0.8z"/>
  <path d="M26.8 789.5 c1 -0.6 17.9 -1.1 43.2 -1.3 37.1 -0.3 41.6 -0.5 42.8 -1.9 1.1 -1.5 1.2 -1.5 1.2 -0.1 0 0.8 -0.6 2 -1.3 2.6 -0.9 0.8 -15.4 1.2 -44.4 1.4 -29.1 0.2 -42.6 0 -41.5 -0.7z"/>
  <path d="M229.7 790 c-44.8 -0.5 -44.6 -0.5 -44.7 -4.7 0 -2 1.7 -1.5 2.3 0.6 0.5 1.9 2 2 42.3 2.3 30.7 0.2 42.4 0.6 43.9 1.5 1.3 0.8 1.4 1.2 0.5 1 -0.8 -0.1 -20.8 -0.4 -44.3 -0.7z"/>
  <path d="M476.8 789.5 c1 -0.6 18.4 -1.2 43.7 -1.5 l42 -0.5 0 -75 0 -75 -187.3 -0.3 c-186.7 -0.2 -187.4 -0.2 -187.9 1.8 -0.3 1.1 -0.9 2 -1.4 2 -1.5 0 -1 -2.7 0.7 -4.4 1.4 -1.4 19.9 -1.6 188.3 -1.6 179.7 0 186.9 0.1 188.4 1.8 1.6 1.7 1.7 8.4 1.7 75.9 0 69.7 -0.1 74.1 -1.8 75.6 -1.6 1.4 -6.9 1.7 -44.9 1.9 -29.1 0.2 -42.6 0 -41.5 -0.7z"/>
  <path d="M680.6 790.3 c-37.3 -0.3 -42.2 -0.5 -43.8 -2 -1.7 -1.5 -1.8 -5.4 -1.8 -75.8 0 -70.6 0.1 -74.3 1.8 -75.8 1.7 -1.6 16.2 -1.7 188.5 -1.7 168.3 0 186.7 0.2 188.1 1.6 1.7 1.7 2.2 4.4 0.7 4.4 -0.5 0 -1.1 -0.9 -1.4 -2 -0.5 -2 -1.2 -2 -187.9 -1.8 l-187.3 0.3 0 75 0 75 42 0.5 c30.5 0.4 42.5 0.8 44 1.7 1.2 0.8 1.4 1.2 0.5 1 -0.8 -0.1 -20.4 -0.3 -43.4 -0.4z"/>
  <path d="M926.5 789.8 c1.6 -1 11.3 -1.4 43.9 -1.6 40.3 -0.3 41.8 -0.4 42.3 -2.3 0.3 -1 0.9 -1.9 1.4 -1.9 1.5 0 1 2.7 -0.7 4.4 -1.3 1.4 -6.6 1.6 -42.7 1.6 -22.7 0 -42.3 0.3 -43.7 0.6 -2.4 0.5 -2.4 0.5 -0.5 -0.8z"/>
  <path d="M1130.6 790.3 c-42.6 -0.3 -44.6 -0.5 -44.6 -4.1 0 -1.4 0.1 -1.4 1.3 0.1 1.1 1.4 5.6 1.6 42.7 1.9 30.4 0.2 42 0.6 43.5 1.5 1.2 0.8 1.4 1.2 0.5 1 -0.8 -0.1 -20.4 -0.3 -43.4 -0.4z"/>
  <path d="M113.2 599 c0 -1.9 0.4 -4.8 0.8 -6.5 0.7 -2.9 0.8 -2.8 0.8 1 0 2.2 -0.4 5.1 -0.8 6.5 -0.7 2.3 -0.8 2.2 -0.8 -1z"/>
  <path d="M1085.7 599.1 c-0.4 -1.8 -0.7 -4.8 -0.6 -6.5 0.1 -2.9 0.1 -2.9 1 0.9 0.6 2.2 0.8 5.1 0.7 6.5 -0.3 2.2 -0.4 2.1 -1.1 -0.9z"/>
  <path d="M115.5 587 c0.4 -1.4 1.2 -2.9 1.7 -3.5 0.7 -0.7 0.8 -0.2 0.3 1.5 -0.4 1.4 -1.2 3 -1.7 3.5 -0.7 0.7 -0.8 0.2 -0.3 -1.5z"/>
  <path d="M1082.9 586.4 c-0.5 -1.5 -0.7 -2.9 -0.5 -3.2 0.5 -0.4 1 0.6 2.2 4.6 0.7 2.3 -0.7 1.2 -1.7 -1.4z"/>
  <path d="M118.9 580.3 c2.6 -4.9 17.1 -16.4 17.1 -13.6 0 0.5 -1.5 1.5 -3.2 2.3 -4 1.7 -12.8 9.8 -12.8 11.6 0 0.8 -0.5 1.4 -1 1.4 -0.7 0 -0.7 -0.6 -0.1 -1.7z"/>
  <path d="M1080 580.6 c0 -1.7 -8.7 -9.9 -12.9 -12.1 -1.8 -0.9 -3 -1.9 -2.7 -2.2 0.9 -1 11.2 6.5 13.9 10 3.4 4.6 3.9 5.7 2.8 5.7 -0.6 0 -1.1 -0.6 -1.1 -1.4z"/>
  <path d="M139.1 564.5 c0.7 -0.7 73.4 -1.2 212.2 -1.5 l211.2 -0.5 0 -75 0 -75 -42 -0.5 c-25.3 -0.3 -42.7 -0.9 -43.7 -1.5 -1.1 -0.7 12.4 -0.9 41.5 -0.7 38 0.2 43.3 0.5 44.9 1.9 1.7 1.5 1.8 5.9 1.8 75.8 0 70.5 -0.1 74.3 -1.8 75.8 -1.7 1.6 -18.5 1.7 -213.5 1.9 -141.1 0.2 -211.3 0 -210.6 -0.7z"/>
  <path d="M849.6 565.3 c-194.5 -0.3 -211.1 -0.4 -212.8 -2 -1.7 -1.5 -1.8 -5.2 -1.8 -75.8 0 -69.9 0.1 -74.3 1.8 -75.8 1.6 -1.4 6.9 -1.7 44.9 -1.9 29.1 -0.2 42.6 0 41.5 0.7 -1 0.6 -18.4 1.2 -43.7 1.5 l-42 0.5 0 75 0 75 211.2 0.5 c167.1 0.4 211.5 0.8 212.5 1.8 0.6 0.6 0.8 1.1 0.3 1 -0.6 -0.2 -95.9 -0.4 -211.9 -0.5z"/>
  <path d="M468 406.1 c-5.2 -3.3 -8.7 -7 -12.2 -12.6 -3.1 -5 -4.3 -8.5 -2.9 -8.5 0.6 0 1.1 0.9 1.1 2 0 5.3 10.1 16.7 17.8 20 2.1 0.9 3 2 1.5 2 -0.5 0 -2.8 -1.3 -5.3 -2.9z"/>
  <path d="M726 408.5 c0 -0.3 1 -1 2.3 -1.5 7.7 -3.4 17.7 -14.6 17.7 -20 0 -1.1 0.4 -2 0.9 -2 2.6 0 -4.3 12.4 -9.5 17.1 -4.6 4.1 -11.4 7.9 -11.4 6.4z"/>
  <path d="M450.9 378 c-0.6 -4.5 -0.4 -5.8 0.7 -4.8 0.3 0.3 0.4 2.6 0.2 4.9 l-0.3 4.4 -0.6 -4.5z"/>
  <path d="M748 377.7 c0 -2.6 0.4 -4.7 0.9 -4.7 0.8 0 0.3 7.9 -0.5 8.9 -0.2 0.2 -0.4 -1.7 -0.4 -4.2z"/>
  <path d="M450.7 147.8 c0.8 -5.9 1.3 -6.1 1.3 -0.5 0 2.6 -0.4 4.7 -0.9 4.7 -0.5 0 -0.7 -1.9 -0.4 -4.2z"/>
  <path d="M748 147.3 c0 -2.5 0.2 -4.4 0.4 -4.2 0.8 1 1.3 8.9 0.5 8.9 -0.5 0 -0.9 -2.1 -0.9 -4.7z"/>
  <path d="M452.6 137.8 c1 -3.4 6.7 -11.9 9.8 -14.7 3.6 -3.4 3.3 -1.9 -0.4 1.9 -4.1 4.2 -8 10.5 -8 13 0 1.1 -0.5 2 -1.1 2 -0.6 0 -0.8 -0.9 -0.3 -2.2z"/>
  <path d="M746 137.8 c0 -1.9 0.2 -2 1 -0.8 1.3 1.9 1.3 3 0 3 -0.5 0 -1 -1 -1 -2.2z"/>
  <path d="M743.6 132.2 c-0.8 -1.5 -3 -4.4 -5 -6.6 -2.1 -2.1 -3.5 -4 -3.3 -4.2 0.6 -0.7 7.4 7.1 9.2 10.5 0.8 1.7 1.3 3.1 1.1 3.1 -0.3 0 -1.2 -1.2 -2 -2.8z"/>
  <path d="M466.6 119.9 c1.2 -2 11.1 -5.8 16.6 -6.4 3.7 -0.4 4.7 -0.2 3.3 0.4 -1.1 0.5 -3.5 1 -5.3 1 -1.8 0.1 -4 0.5 -5 1 -6.1 3.3 -10.2 5 -9.6 4z"/>
  <path d="M729 118.5 c-2.5 -1.4 -3.8 -2.5 -3 -2.5 1.6 0 8 3.6 8 4.5 0 0.6 0.2 0.7 -5 -2z"/>
  <path d="M718.2 115 c-2.9 -0.4 -5.6 -1.1 -6 -1.5 -1 -1.1 10.1 0.5 11.3 1.6 0.5 0.5 0.7 0.8 0.5 0.8 -0.3 -0.1 -2.9 -0.5 -5.8 -0.9z"/>
 </g>
 <g fill="#525252">
  <path d="M24.8 1084.7 c-3 -1.2 -4 -3.1 -1 -2 2.2 0.8 5.9 3.3 4.7 3.2 -0.6 -0.1 -2.2 -0.6 -3.7 -1.2z"/>
  <path d="M272.5 1084.7 c2.3 -1.6 5.5 -2.8 5.5 -2.2 0 0.6 -5.6 3.5 -6.7 3.5 -0.4 0 0.1 -0.6 1.2 -1.3z"/>
  <path d="M474.8 1084.7 c-3 -1.2 -4 -3.1 -1 -2 2.2 0.8 5.9 3.3 4.7 3.2 -0.6 -0.1 -2.2 -0.6 -3.7 -1.2z"/>
  <path d="M722.5 1084.8 c2.7 -2 5.5 -2.9 5.5 -1.9 0 0.5 -0.8 1.1 -1.7 1.4 -1 0.2 -2.7 0.8 -3.8 1.2 l-2 0.7 2 -1.4z"/>
  <path d="M924.8 1084.4 c-1.6 -0.8 -2.8 -1.7 -2.8 -1.9 0 -0.6 3.2 0.6 5.5 2.2 2.6 1.8 0.7 1.6 -2.7 -0.3z"/>
  <path d="M1172.5 1084.8 c2.7 -2 5.5 -2.9 5.5 -1.9 0 0.5 -0.8 1.1 -1.7 1.4 -1 0.2 -2.7 0.8 -3.8 1.2 l-2 0.7 2 -1.4z"/>
  <path d="M457.5 1071.3 l-1.7 -2.8 2.3 2.2 c1.2 1.2 2 2.5 1.7 2.8 -0.3 0.3 -1.3 -0.7 -2.3 -2.2z"/>
  <path d="M740 1073.2 c0 -0.5 1 -1.7 2.2 -2.8 l2.1 -1.9 -1.8 2.8 c-1.8 2.8 -2.5 3.3 -2.5 1.9z"/>
  <path d="M1.3 1056.9 c-1.2 -3 -1.1 -3.2 0.3 -1.7 0.9 0.8 1.4 2.3 1.2 3.3 -0.2 1.2 -0.7 0.7 -1.5 -1.6z"/>
  <path d="M1197.1 1058.5 c0 -1.1 0.6 -2.9 1.4 -3.9 0.8 -1.1 1.5 -1.5 1.5 -1 0 0.6 -0.4 1.4 -0.9 2 -0.5 0.5 -1.1 1.8 -1.4 2.9 l-0.5 2 -0.1 -2z"/>
  <path d="M450.7 1050.3 c-1.2 -1.1 -0.8 -225.1 0.3 -225.8 0.7 -0.4 1 37.5 1 112.9 0 62.5 -0.1 113.6 -0.3 113.6 -0.2 0 -0.7 -0.3 -1 -0.7z"/>
  <path d="M748 937.5 c0 -75.5 0.3 -113.4 1 -113 0.7 0.4 1 39.2 1 113 0 73.8 -0.3 112.6 -1 113 -0.7 0.4 -1 -37.5 -1 -113z"/>
  <path d="M1198.1 819.6 c-0.8 -1.3 -1.1 -3 -0.8 -3.8 0.3 -0.8 0.6 -0.5 0.6 0.8 0.1 1.1 0.6 2.5 1.3 3.2 0.6 0.6 0.9 1.4 0.7 1.7 -0.3 0.3 -1.1 -0.6 -1.8 -1.9z"/>
  <path d="M1.3 818.1 c0.8 -2.3 1.3 -2.8 1.5 -1.6 0.2 1 -0.3 2.5 -1.2 3.3 -1.4 1.5 -1.5 1.3 -0.3 -1.7z"/>
  <path d="M32.5 789.2 c1.1 -0.4 19.6 -0.5 41 -0.2 l39 0.6 -41 0.1 c-22.5 0.1 -40.1 -0.1 -39 -0.5z"/>
  <path d="M226.5 789 c21.5 -0.3 39.9 -0.2 41 0.2 1.1 0.4 -16.4 0.6 -39 0.5 l-41 -0.1 39 -0.6z"/>
  <path d="M482.5 789.2 c1.1 -0.4 19.6 -0.5 41 -0.2 l39 0.6 -41 0.1 c-22.5 0.1 -40.1 -0.1 -39 -0.5z"/>
  <path d="M676.5 789 c21.5 -0.3 39.9 -0.2 41 0.2 1.1 0.4 -16.4 0.6 -39 0.5 l-41 -0.1 39 -0.6z"/>
  <path d="M932.5 789.2 c1.1 -0.4 19.6 -0.5 41 -0.2 l39 0.6 -41 0.1 c-22.5 0.1 -40.1 -0.1 -39 -0.5z"/>
  <path d="M1126.5 789 c21.5 -0.3 39.9 -0.2 41 0.2 1.1 0.4 -16.4 0.6 -39 0.5 l-41 -0.1 39 -0.6z"/>
  <path d="M186.4 788.3 c0.4 -0.7 0.2 -1.3 -0.3 -1.3 -0.8 0 -1.1 -22.7 -1.1 -74.5 0 -51.8 0.3 -74.5 1.1 -74.5 0.5 0 0.8 -0.4 0.5 -0.9 -0.3 -0.5 0.1 -1.2 1 -1.5 0.9 -0.3 85.4 -0.6 187.8 -0.6 179.5 0 186.4 0.1 188 1.8 1.5 1.7 1.6 8.1 1.4 76.2 -0.2 59.3 -0.6 74.4 -1.6 74.6 -0.7 0.1 -0.8 0 -0.2 -0.3 0.7 -0.3 1 -24.9 1 -74.5 0 -62.7 -0.2 -74.2 -1.4 -75.4 -1.3 -1.2 -27.7 -1.4 -187.9 -1.4 -170.7 0 -186.5 0.1 -187.1 1.6 -0.3 0.9 -0.6 35.2 -0.6 76.2 0 40.9 -0.3 74.8 -0.6 75.1 -0.4 0.3 -0.4 0 0 -0.6z"/>
  <path d="M1013 788.3 c0 -0.5 0 -34.2 0 -74.9 0 -40.8 -0.3 -74.9 -0.6 -75.8 -0.6 -1.5 -16.4 -1.6 -187.1 -1.6 -160.2 0 -186.6 0.2 -187.9 1.4 -1.2 1.2 -1.4 12.7 -1.4 75.4 0 49.6 0.3 74.2 1 74.5 0.6 0.3 0.5 0.4 -0.2 0.3 -1 -0.2 -1.4 -15.3 -1.6 -74.6 -0.2 -68.1 -0.1 -74.5 1.4 -76.2 1.6 -1.7 8.5 -1.8 188 -1.8 102.4 0 186.9 0.3 187.8 0.6 0.9 0.3 1.3 1 1 1.5 -0.3 0.5 0 0.9 0.5 0.9 0.8 0 1.1 22.7 1.1 74.5 0 51.8 -0.3 74.5 -1.1 74.5 -0.5 0 -0.7 0.5 -0.4 1 0.3 0.6 0.4 1 0.1 1 -0.3 0 -0.6 -0.3 -0.6 -0.7z"/>
  <path d="M112.8 727.3 c0.1 -33.5 0.3 -76.1 0.5 -94.8 0.1 -18.7 0.3 8.6 0.5 60.8 0.1 52.1 -0.1 94.7 -0.5 94.7 -0.5 0 -0.7 -27.3 -0.5 -60.7z"/>
  <path d="M1086.2 693.3 c0.2 -52.2 0.4 -79.5 0.5 -60.8 0.7 89.2 0.7 155.5 0.1 155.5 -0.5 0 -0.7 -42.6 -0.6 -94.7z"/>
  <path d="M1074.7 574 c-0.9 -1.1 -1.3 -2 -0.8 -2 0.4 0 1.6 0.9 2.6 2 1 1.1 1.4 2 0.9 2 -0.5 0 -1.7 -0.9 -2.7 -2z"/>
  <path d="M129.4 569.5 c1.1 -0.8 2.5 -1.5 3 -1.5 0.6 0 0.2 0.7 -0.8 1.5 -1.1 0.8 -2.5 1.5 -3 1.5 -0.6 0 -0.2 -0.7 0.8 -1.5z"/>
  <path d="M145.2 564.5 c0.3 -0.3 94 -0.5 208.2 -0.5 179.3 0 207.9 -0.2 209.2 -1.4 1.2 -1.2 1.4 -12.4 1.4 -75.4 0 -49.6 -0.3 -74.2 -1 -74.5 -0.6 -0.3 -0.5 -0.4 0.2 -0.3 1 0.2 1.4 15.3 1.6 74.6 0.2 68.1 0.1 74.5 -1.4 76.2 -1.7 1.7 -9.2 1.8 -210.2 1.8 -114.7 0 -208.3 -0.2 -208 -0.5z"/>
  <path d="M636.6 563.2 c-1.5 -1.7 -1.6 -8.1 -1.4 -76.2 0.2 -59.3 0.6 -74.4 1.6 -74.6 0.7 -0.1 0.8 0 0.2 0.3 -0.7 0.3 -1 24.9 -1 74.5 0 63 0.2 74.2 1.4 75.4 1.3 1.2 29.9 1.4 209.2 1.4 114.2 0 207.9 0.2 208.2 0.5 0.3 0.3 -93.3 0.5 -208 0.5 -201 0 -208.5 -0.1 -210.2 -1.8z"/>
  <path d="M482.2 410.8 c-0.9 -0.4 16.8 -0.6 39.3 -0.5 22.6 0.1 37.2 0.2 32.5 0.4 -19.8 0.7 -70.2 0.7 -71.8 0.1z"/>
  <path d="M675.5 411 l-38 -0.5 41 -0.2 c23.6 -0.1 40.2 0.2 39 0.7 -1.1 0.5 -2.4 0.8 -3 0.7 -0.5 -0.1 -18.1 -0.4 -39 -0.7z"/>
  <path d="M450.7 375.3 c-1.2 -1.1 -0.8 -225.1 0.3 -225.8 0.7 -0.4 1 37.5 1 112.9 0 62.5 -0.1 113.6 -0.3 113.6 -0.2 0 -0.7 -0.3 -1 -0.7z"/>
  <path d="M748 262.5 c0 -75.5 0.3 -113.4 1 -113 0.7 0.4 1 39.2 1 113 0 73.8 -0.3 112.6 -1 113 -0.7 0.4 -1 -37.5 -1 -113z"/>
  <path d="M457.5 128.7 c1 -1.5 2 -2.5 2.3 -2.2 0.3 0.3 -0.5 1.6 -1.7 2.8 l-2.3 2.2 1.7 -2.8z"/>
  <path d="M741.5 129 c-1 -1.1 -1.6 -2.2 -1.3 -2.5 0.3 -0.3 1.3 0.6 2.2 2 2 3 1.6 3.2 -0.9 0.5z"/>
  <path d="M472 117.5 c0 -0.6 5.6 -3.5 6.7 -3.5 1 0 -2.7 2.5 -4.9 3.3 -1 0.4 -1.8 0.4 -1.8 0.2z"/>
  <path d="M724.2 116.3 c-1.8 -0.8 -3.1 -1.7 -2.9 -1.9 0.6 -0.6 6.7 2 6.7 2.8 0 1 0.1 1 -3.8 -0.9z"/>
 </g>
</svg>
