<?xml version="1.0" encoding="utf-8"?>
<!DOCTYPE svg PUBLIC "-//W3C//DTD SVG 20010904//EN" "http://www.w3.org/TR/2001/REC-SVG-20010904/DTD/svg10.dtd">
<svg version="1.0" xmlns="http://www.w3.org/2000/svg" width="1200px" height="1200px" viewBox="0 0 1200 1200" preserveAspectRatio="xMidYMid meet">
 <g fill="#525252">
  <path fill="currentColor" d="M303 1198.9 c-1.9 -0.4 -6.3 -1.2 -9.6 -1.8 -21.6 -3.9 -44.2 -16.4 -59.8 -33.2 -18.8 -20.3 -28.6 -43.6 -30 -71.9 -2.1 -40.4 -2.8 -52.9 -4.1 -82.5 -0.8 -18.1 -1.9 -41.5 -2.5 -52 -0.6 -10.4 -1.5 -29.3 -2.1 -42 -2.6 -59.8 -4.3 -96.4 -5.9 -126 -0.6 -11 -1.5 -30.3 -2.1 -43 -0.6 -12.6 -1.4 -31.5 -1.9 -42 -3.2 -66.1 -4.2 -86.3 -5 -105.5 -0.9 -22.2 -2.3 -49.3 -4 -82.5 -0.6 -10.4 -1.5 -30 -2 -43.5 -0.6 -13.5 -1.3 -25.9 -1.6 -27.6 -0.7 -4.1 2.5 -10.6 6.1 -12.2 3.7 -1.7 839.2 -1.7 842.9 0 3.1 1.4 7 9 6.3 12.1 -0.3 1.2 -1.1 13.7 -1.6 27.7 -0.6 14 -1.5 33.8 -2.1 44 -1.5 27.5 -3 57.8 -4 82 -0.6 11.8 -1.7 35.9 -2.5 53.5 -2.1 44.1 -3.2 67.1 -4.4 94 -0.6 12.7 -1.5 31.8 -2.1 42.5 -0.6 10.7 -1.5 29.6 -2.1 42 -0.6 12.4 -1.4 31.1 -1.9 41.5 -0.5 10.5 -1.4 29.4 -1.9 42 -0.6 12.7 -1.5 31.8 -2.1 42.5 -0.6 10.7 -1.7 34.4 -2.5 52.5 -0.8 18.2 -1.9 41.6 -2.5 52 -0.5 10.5 -1.2 24.2 -1.6 30.5 -0.3 6.3 -0.9 13.1 -1.4 15 -0.5 1.9 -1.6 6.7 -2.6 10.5 -1 3.9 -2.1 7.7 -2.5 8.5 -0.4 0.8 -1.5 3.5 -2.5 6 -3.5 8.8 -12.7 22.9 -20.3 31.1 -16.3 17.7 -38.3 30.1 -60.5 33.9 -3.3 0.6 -8 1.5 -10.4 2.1 -5.2 1.1 -588.1 1 -593.2 -0.2z m117.9 -149.4 c2.9 -0.7 6.8 -2.1 8.7 -3 5.6 -2.6 13.8 -10.9 16.9 -17.2 l3 -5.8 0 -254.5 0 -254.5 -2.7 -5.8 c-3.4 -7.2 -11 -14.7 -18.5 -18.3 -5.2 -2.5 -6.9 -2.8 -15.8 -2.8 -11.4 0.1 -15.8 1.6 -24.4 8.4 -6 4.7 -9.8 10.9 -12.3 19.9 -1.7 6.3 -1.8 17.2 -1.8 252.6 0 268.3 -0.3 253.2 5.6 262.8 5.6 9 14.1 15.5 23.5 18.1 7 1.9 11.2 1.9 17.8 0.1z m187.4 -0.1 c10.7 -2.7 17.6 -7.5 23.1 -15.8 7.2 -11 6.6 12.9 6.4 -266.1 l-0.3 -251 -2.3 -5.7 c-3.3 -8.1 -10.8 -16 -19 -20 -6.1 -3 -7.5 -3.3 -16.2 -3.2 -8.1 0 -10.3 0.4 -15.2 2.6 -6.7 3.1 -14 9.5 -17.4 15.3 -5.7 9.9 -5.4 -8 -5.4 263.6 0 230.6 0.1 249.9 1.7 254.5 3.3 9.7 10 18 18.3 22.4 3.5 1.9 13.9 4.8 17.4 4.9 1.5 0.1 5.6 -0.6 8.9 -1.5z m188 0 c14 -3.6 24.9 -14.7 28.2 -28.6 1.3 -5.5 1.5 -39.1 1.5 -252.2 0 -266.9 0.3 -251.2 -5.2 -262 -2.9 -5.6 -10.6 -12.8 -17.5 -16.1 -5.2 -2.6 -6.9 -2.9 -15.8 -2.9 -8.9 0 -10.6 0.3 -15.8 2.8 -7.5 3.6 -15.1 11.1 -18.5 18.3 l-2.7 5.8 0 254.5 0 254.5 3 5.8 c3.1 6.3 11.3 14.6 17 17.3 4.6 2.2 12.3 4.2 16.4 4.3 1.8 0.1 6 -0.6 9.4 -1.5z"/>
  <path fill="currentColor" d="M143.5 355.1 c-11.2 -2 -21.6 -10.1 -26.9 -21.1 l-3.1 -6.5 0 -48.5 c0 -49.9 0.1 -52 4.2 -64 9.8 -28.8 33 -51.8 60.7 -60 3.4 -1 7.2 -2.2 8.6 -2.6 1.4 -0.5 52.7 -1.1 114 -1.4 l111.5 -0.5 0.6 -26 c0.6 -27.3 1.4 -33.8 5.6 -47 10.9 -33.7 40.1 -62.2 74 -72.1 16.6 -4.8 17.8 -4.8 107.3 -4.8 89.5 0 90.7 0 107.3 4.8 33.9 9.9 62.6 37.9 74 72.1 4.2 12.9 5 19.5 5.6 47 l0.6 26 111.5 0.5 c61.3 0.3 112.6 0.9 114 1.4 1.4 0.4 5.2 1.6 8.6 2.6 27.8 8.3 52.6 32.9 60.7 60.5 4.3 14.3 4.2 13.5 4.2 63.5 l0 48.5 -2.8 6 c-3.7 8 -10.7 15 -18.7 18.9 l-6.5 3.1 -455.5 0.1 c-250.5 0.1 -457.3 -0.2 -459.5 -0.5z m569 -228.6 l-0.1 -24 -2.8 -5.9 c-4 -8.1 -11.2 -15 -19.3 -18.9 l-6.8 -3.2 -83.5 0 -83.5 0 -6.8 3.2 c-8.2 3.9 -15.3 10.9 -19.2 18.9 -2.9 5.9 -2.9 6 -3.3 28.7 -0.2 12.5 -0.1 23.4 0.2 24.2 0.5 1.3 14.7 1.5 112.8 1.3 l112.3 -0.3 0 -24z"/>
 </g>
</svg>
