<?xml version="1.0" encoding="utf-8"?>
<!DOCTYPE svg PUBLIC "-//W3C//DTD SVG 20010904//EN" "http://www.w3.org/TR/2001/REC-SVG-20010904/DTD/svg10.dtd">
<svg version="1.0" xmlns="http://www.w3.org/2000/svg" width="1200px" height="1200px" viewBox="0 0 1200 1200" preserveAspectRatio="xMidYMid meet">
 <g fill="#525252">
  <path fill="currentColor" d="M573.5 984.9 c-13.4 -1 -28.9 -2.6 -38 -3.9 -3.3 -0.5 -10.9 -1.7 -17 -2.5 -6 -0.9 -12.3 -2 -14 -2.5 -1.6 -0.4 -5.7 -1.3 -9 -2 -5.8 -1.3 -25.8 -6.3 -32 -8 -18.4 -5.2 -24.4 -7.1 -37 -11.6 -6.6 -2.4 -8 -3 -13.7 -5.3 -1.3 -0.5 -5 -1.9 -8.3 -3.1 -3.3 -1.2 -8.8 -3.5 -12.3 -5.1 -3.5 -1.6 -6.5 -2.9 -6.7 -2.9 -0.8 0 -12.1 -5.3 -29 -13.5 -45.7 -22.3 -88.4 -48.6 -133.4 -82.4 -8.4 -6.4 -16.6 -12.5 -18 -13.6 -5.6 -4.1 -39.5 -32.1 -43.2 -35.7 -0.8 -0.7 -5.2 -4.7 -9.9 -8.8 -32.4 -28.5 -85.8 -83.1 -115.5 -118.1 -4.4 -5.2 -8.2 -9.6 -8.5 -9.9 -0.3 -0.3 -2.3 -2.7 -4.5 -5.5 -2.1 -2.7 -4.2 -5.2 -4.5 -5.5 -4.8 -4.5 -13.9 -20.1 -15.4 -26.5 -0.4 -1.7 -1.2 -5 -1.8 -7.5 -3 -12.3 -0.1 -29.7 7 -42 2.1 -3.8 8.3 -12.2 10.2 -14 0.3 -0.3 2.4 -2.7 4.5 -5.5 2.2 -2.7 4.2 -5.2 4.5 -5.5 0.3 -0.3 4.1 -4.7 8.5 -9.9 29.7 -35 83.1 -89.6 115.5 -118.1 4.7 -4.1 9.1 -8.1 9.9 -8.8 3.7 -3.6 37.6 -31.6 43.2 -35.7 1.4 -1.1 9.6 -7.2 18 -13.6 33.7 -25.3 61.7 -43.6 101.4 -66.1 8.9 -5 61.6 -30.8 63 -30.8 0.2 0 2.8 -1.1 5.8 -2.4 2.9 -1.4 8 -3.4 11.3 -4.6 6.1 -2.2 7.4 -2.7 13.4 -5.3 5.3 -2.3 33 -11.4 41.7 -13.8 13.3 -3.6 26.6 -6.9 31.8 -8 2.8 -0.6 6.8 -1.5 9 -2 25.4 -5.6 73.5 -10.9 99.5 -10.9 24.9 0 76.6 5.6 98 10.5 1.4 0.4 4.3 1 6.5 1.5 25 5.5 48.8 12.3 69 19.7 11.2 4 27.7 10.4 32 12.3 2.2 1 8.5 3.7 14 6 12.6 5.5 49.7 24 59.3 29.7 4.1 2.4 7.5 4.3 7.7 4.3 1.2 0 39.7 24.2 56.7 35.7 36.1 24.3 85.9 64.1 120.3 96.3 31.7 29.6 69.7 68.7 91.7 94.5 2.6 3.1 10 11.6 14.7 17 1.4 1.7 4.4 5.3 6.6 8 2.1 2.8 4.2 5.2 4.5 5.5 4.8 4.5 13.9 20.1 15.4 26.5 2.3 9.8 2.8 12.6 3.3 18.4 0.3 3.9 0.1 6.7 -0.6 7.4 -0.6 0.6 -1.1 2.5 -1.1 4.2 0 3.6 -4.1 15.3 -7.2 20.4 -1.9 3.1 -8.3 11.7 -9.8 13.1 -0.3 0.3 -2.4 2.7 -4.5 5.5 -2.2 2.7 -5.2 6.3 -6.6 8 -3 3.4 -10.9 12.5 -14.7 17 -29.1 33.7 -74.7 79.9 -107.2 108.5 -4.7 4.1 -8.7 7.7 -9 8 -1.4 1.6 -27.1 22.9 -38 31.6 -35.3 28.3 -82.4 60.5 -115.7 79.1 -2.7 1.5 -7.5 4.2 -10.8 6 -10.6 5.9 -44.7 22.8 -55 27.2 -5.5 2.4 -11.8 5.1 -14 6.1 -13.2 5.8 -47.3 18 -60.5 21.7 -3 0.8 -6.8 1.8 -8.5 2.3 -6.9 1.9 -26.4 6.8 -32 8 -3.3 0.7 -7.3 1.6 -9 2 -1.6 0.5 -7.9 1.6 -14 2.5 -6 0.8 -13.7 2 -17 2.5 -29 4.3 -63.6 5.8 -91 3.9z m53.5 -106 c10.2 -0.9 19 -2.2 32.5 -4.9 24.9 -4.9 57.5 -17.6 81.5 -31.6 40.5 -23.6 77.8 -60.9 101.4 -101.4 3.6 -6.1 14 -26.8 15.6 -31 0.7 -1.9 1.9 -4.8 2.5 -6.5 5.2 -12.7 9.3 -26.5 14.1 -47 7.2 -31.2 7.2 -81.8 0 -113 -7.3 -31.3 -11.8 -44.3 -23.8 -68.5 -14 -28.1 -30.2 -50.6 -52.7 -73.1 -25.6 -25.6 -56.8 -46.6 -90.1 -60.8 -14.1 -6 -37 -12.9 -53.5 -16.1 -3.3 -0.7 -8 -1.6 -10.5 -2.1 -14.5 -2.8 -49.9 -3.7 -71 -1.9 -24.7 2.1 -53.6 9.1 -76.5 18.5 -1.6 0.6 -4.6 1.8 -6.5 2.5 -4.2 1.6 -24.9 12 -31 15.6 -35.8 20.9 -69.5 52.6 -92.3 87 -8.4 12.8 -10.6 16.5 -17.5 30.4 -13.8 27.7 -18.9 43.5 -26.2 80.5 -3.9 20.2 -3.9 69.5 0 89 0.6 2.8 1.5 7.5 2.1 10.5 4.6 23.9 12.1 45.8 24.1 70 14 28.1 30.2 50.5 52.7 73.1 31.6 31.6 67.9 53.9 111.6 68.7 5.2 1.8 18.9 5.3 32 8.2 20.4 4.6 56 6.3 81.5 3.9z"/>
  <path fill="currentColor" d="M587.5 791.9 c-26.3 -2 -47.5 -7.6 -70.3 -18.5 -38.7 -18.3 -71.7 -51.2 -90.3 -89.9 -11.4 -23.7 -17 -45.1 -18.7 -71.7 -0.9 -13.7 0.1 -31.3 2.4 -44.8 8.7 -51 38.6 -97.1 81.9 -126.2 23.3 -15.7 48.3 -25.8 74.5 -30.2 66.9 -11.2 130.9 11.3 177.3 62.4 18.2 20 35 51.7 42.2 79.5 6.1 23.7 7.3 55.1 2.9 80.5 -8.7 51 -38.7 97.1 -81.9 126.2 -28.1 18.9 -60.3 30.2 -92 32.3 -4.9 0.3 -10.8 0.7 -13 0.9 -2.2 0.2 -8.9 0 -15 -0.5z m-45.5 -207.6 c0 -8.1 6 -20.8 12.9 -27.8 6.8 -6.8 18.2 -12.5 25 -12.5 2.1 0 4.4 -0.6 5 -1.4 0.8 -0.9 1.1 -10.4 0.9 -32.7 l-0.3 -31.4 -7.5 0.2 c-11.3 0.3 -25.3 3.9 -38 9.6 -16.4 7.5 -36 25 -45.9 41.1 -9.5 15.3 -15.4 32.9 -16.7 49.4 l-0.7 8.2 32.7 0 32.6 0 0 -2.7z"/>
 </g>
</svg>
